<?xml version="1.0" encoding="utf-8"?>
<svg width="6.63791in" height="3.55805in" version="1.1" style="shape-rendering:geometricPrecision; text-rendering:geometricPrecision; image-rendering:optimizeQuality; fill-rule:evenodd; clip-rule:evenodd" viewBox="0 0 5958 3194" xmlns="http://www.w3.org/2000/svg" xmlns:bx="https://boxy-svg.com">
  <defs>
    <style bx:fonts="EKLG-43 ">@font-face { font-family: "EKLG-43 "; font-variant: normal; font-weight: normal; }</style>
    <style type="text/css">.str0 { stroke: rgb(43, 42, 41); stroke-width: 6.23366; }.fil2 { fill: rgb(254, 254, 254); }.fil0 { fill: rgb(43, 42, 41); }.fil1 { fill: rgb(236, 107, 33); }.fnt0 { font-weight: normal; font-size: 952.973px; font-family: "EKLG-43 "; }</style>
  </defs>
  <g id="Layer_x0020_1" style="" transform="matrix(1.037853, 0, 0, 1.019596, -118.430183, -13.38119)">
    <path class="fil1" d="M1951 1610c-35,0 -34,18 -9,35 32,23 133,71 162,71 91,0 82,6 137,-35 16,-13 69,-48 83,-67 150,-3 304,0 455,0l1024 0c29,0 37,-4 49,8 10,8 21,17 33,25 106,77 66,69 181,69 24,0 177,-63 180,-90 1,-15 -11,-16 -23,-16 -212,0 -174,19 -225,-67 -43,-70 -34,-57 8,-134 12,-20 21,-48 46,-51 38,-5 168,5 190,-7 26,-29 -120,-82 -137,-88 -30,-11 -30,-12 -67,-12 -75,1 -63,-1 -114,40l-65 52c-10,9 -11,11 -28,11l-1486 0c-27,0 -19,1 -55,-28 -99,-82 -76,-75 -183,-75 -32,0 -173,64 -180,85 -9,25 29,19 46,20l132 1c25,0 33,6 43,24 16,26 34,57 48,84 14,28 -7,49 -31,90 -24,42 -19,56 -80,56 -45,-1 -90,-1 -134,-1z" style="stroke-width: 0px; stroke-miterlimit: 1;"/>
    <path class="fil2" d="M2186 904c42,-31 120,-69 175,-90 49,-19 161,-54 211,-52l100 246c-20,1 -49,-4 -69,-5 -138,-8 -186,4 -322,-49 -15,-6 -87,-35 -95,-50zm-441 24c12,21 34,47 52,71 19,24 37,48 55,73 59,80 81,52 182,39 90,-12 147,5 204,45 44,31 98,86 127,131l1455 0c23,-51 82,-101 133,-122 27,-11 40,-10 68,-17 -55,-22 -288,-29 -359,-24 -79,5 -170,19 -241,50 -40,18 -27,19 -75,9 -165,-37 -348,-115 -531,-150 -7,-1 -78,-13 -81,-17l-106 -261c294,-10 419,35 679,153 33,15 63,29 95,45 31,15 67,34 95,45 -15,-22 -139,-99 -168,-118 -54,-34 -128,-71 -190,-99 -154,-70 -279,-105 -478,-97 -285,11 -570,194 -784,231 -46,8 -85,8 -132,13z" style="fill: rgb(0, 0, 0); stroke-width: 0px; stroke-miterlimit: 1;"/>
    <path class="fil2" d="M2794 1000c32,8 72,13 106,20 110,24 199,47 308,79 34,10 64,19 97,29 64,20 38,15 96,-5 284,-96 599,-49 871,54 32,12 60,24 90,38l85 45c-16,-21 -99,-71 -133,-88 -205,-108 -511,-168 -743,-152 -65,4 -124,24 -179,44 -45,16 -31,18 -83,4l-186 -37c-23,-4 -79,-10 -96,-18 72,-3 212,18 290,30 23,4 33,10 53,2 32,-13 65,-22 100,-30 -26,-13 -279,-25 -330,-27 -19,-1 -322,-5 -346,12z" style="fill: rgb(0, 0, 0); stroke-width: 0px; stroke-miterlimit: 1;"/>
    <path class="fil2" d="M2082 1519c-17,-12 -64,-29 -87,-39 -30,-13 -57,-26 -88,-41 -53,-25 -118,-58 -163,-91 -48,-36 -75,-98 -102,-152 -15,-29 -29,-56 -43,-86 -8,-16 -32,-74 -43,-86 1,72 12,163 21,234 10,72 24,155 70,185 64,41 232,59 318,65 38,3 81,11 117,11z" style="fill: rgb(0, 0, 0); stroke-width: 0px; stroke-miterlimit: 1;"/>
    <path class="fil2" d="M4203 1237l10 7c41,17 41,11 94,41 27,16 71,37 80,73 12,48 -21,84 -61,90 -22,3 -43,6 -65,9 -14,2 -56,4 -68,13l273 0c65,0 53,-48 24,-89 -46,-68 -109,-103 -182,-143 -11,-6 -45,-26 -53,-28 -23,-5 -46,16 -52,27z" style="fill: rgb(10, 10, 10); stroke-width: 0px; stroke-miterlimit: 1;"/>
    <path class="fil2" d="M1545 909c4,17 126,156 154,190 9,11 22,31 34,37 25,11 92,20 122,16 -3,-14 -130,-166 -153,-195 -10,-12 -18,-28 -36,-35 -26,-10 -90,-19 -121,-13z" style="fill: rgb(0, 0, 0); stroke-width: 0px; stroke-miterlimit: 1;"/>
    <text class="fil2 fnt0" style="stroke-miterlimit: 1; stroke-width: 0px; white-space: pre;" x="590" y="2705"> </text>
  </g>
</svg>