<?xml version="1.0" encoding="utf-8"?>
<svg id="Layer_2" viewBox="0 0 422.86 144.63" xmlns="http://www.w3.org/2000/svg">
  <defs>
    <style>
      .cls-1 {
        fill: #0a0a0a;
      }

      .cls-1, .cls-2, .cls-3 {
        fill-rule: evenodd;
      }

      .cls-3 {
        fill: #ec6b21;
      }
    </style>
  </defs>
  <g id="Layer_1-2" data-name="Layer_1">
    <g id="Layer_x5F_1" style="">
      <path class="cls-3" d="M57.84,129.75c-4.99,0-4.84,2.52-1.28,4.9,4.56,3.22,18.95,9.94,23.08,9.94,12.96,0,11.68.84,19.52-4.9,2.28-1.82,9.83-6.72,11.82-9.38,21.37-.42,43.31,0,64.82,0h145.87c4.13,0,5.27-.56,6.98,1.12,1.42,1.12,2.99,2.38,4.7,3.5,15.1,10.78,9.4,9.66,25.78,9.66,3.42,0,25.21-8.82,25.64-12.6.14-2.1-1.57-2.24-3.28-2.24-30.2,0-24.79,2.66-32.05-9.38-6.13-9.8-4.84-7.98,1.14-18.75,1.71-2.8,2.99-6.72,6.55-7.14,5.41-.7,23.93.7,27.07-.98,3.7-4.06-17.09-11.48-19.52-12.32-4.27-1.54-4.27-1.68-9.54-1.68-10.68.14-8.97-.14-16.24,5.6l-9.26,7.28c-1.42,1.26-1.57,1.54-3.99,1.54H113.96c-3.85,0-2.71.14-7.83-3.92-14.1-11.48-10.83-10.5-26.07-10.5-4.56,0-24.64,8.96-25.64,11.9-1.28,3.5,4.13,2.66,6.55,2.8l18.8.14c3.56,0,4.7.84,6.13,3.36,2.28,3.64,4.84,7.98,6.84,11.76,1.99,3.92-1,6.86-4.42,12.6-3.42,5.88-2.71,7.84-11.4,7.84-6.41-.14-12.82-.14-19.09-.14Z"/>
      <path class="cls-2" d="M91.31,30.95c5.98-4.34,17.09-9.66,24.93-12.6,6.98-2.66,22.94-7.56,30.06-7.28l14.25,34.43c-2.85.14-6.98-.56-9.83-.7-19.66-1.12-26.5.56-45.87-6.86-2.14-.84-12.39-4.9-13.53-7ZM28.49,34.3c1.71,2.94,4.84,6.58,7.41,9.94,2.71,3.36,5.27,6.72,7.83,10.22,8.4,11.2,11.54,7.28,25.93,5.46,12.82-1.68,20.94.7,29.06,6.3,6.27,4.34,13.96,12.04,18.09,18.33h207.27c3.28-7.14,11.68-14.13,18.95-17.07,3.85-1.54,5.7-1.4,9.69-2.38-7.83-3.08-41.03-4.06-51.14-3.36-11.25.7-24.22,2.66-34.33,7-5.7,2.52-3.85,2.66-10.68,1.26-23.5-5.18-49.57-16.09-75.64-20.99-1-.14-11.11-1.82-11.54-2.38l-15.1-36.53c41.88-1.4,59.69,4.9,96.73,21.41,4.7,2.1,8.97,4.06,13.53,6.3,4.42,2.1,9.54,4.76,13.53,6.3-2.14-3.08-19.8-13.85-23.93-16.51-7.69-4.76-18.23-9.94-27.07-13.85C205.13,3.94,187.33-.96,158.98.16c-40.6,1.54-81.2,27.15-111.68,32.33-6.55,1.12-12.11,1.12-18.8,1.82Z"/>
      <path class="cls-2" d="M177.92,44.38c4.56,1.12,10.26,1.82,15.1,2.8,15.67,3.36,28.35,6.58,43.88,11.06,4.84,1.4,9.12,2.66,13.82,4.06,9.12,2.8,5.41,2.1,13.68-.7,40.46-13.44,85.33-6.86,124.08,7.56,4.56,1.68,8.55,3.36,12.82,5.32l12.11,6.3c-2.28-2.94-14.1-9.94-18.95-12.32-29.2-15.11-72.79-23.51-105.84-21.27-9.26.56-17.66,3.36-25.5,6.16-6.41,2.24-4.42,2.52-11.82.56l-26.5-5.18c-3.28-.56-11.25-1.4-13.68-2.52,10.26-.42,30.2,2.52,41.31,4.2,3.28.56,4.7,1.4,7.55.28,4.56-1.82,9.26-3.08,14.25-4.2-3.7-1.82-39.74-3.5-47.01-3.78-2.71-.14-45.87-.7-49.29,1.68Z"/>
      <path class="cls-2" d="M76.5,117.01c-2.42-1.68-9.12-4.06-12.39-5.46-4.27-1.82-8.12-3.64-12.54-5.74-7.55-3.5-16.81-8.12-23.22-12.74-6.84-5.04-10.68-13.71-14.53-21.27-2.14-4.06-4.13-7.84-6.13-12.04-1.14-2.24-4.56-10.36-6.13-12.04.14,10.08,1.71,22.81,2.99,32.75,1.42,10.08,3.42,21.69,9.97,25.89,9.12,5.74,33.05,8.26,45.3,9.1,5.41.42,11.54,1.54,16.67,1.54Z"/>
      <path class="cls-1" d="M378.64,77.55l1.42.98c5.84,2.38,5.84,1.54,13.39,5.74,3.85,2.24,10.11,5.18,11.4,10.22,1.71,6.72-2.99,11.76-8.69,12.6-3.13.42-6.13.84-9.26,1.26-1.99.28-7.98.56-9.69,1.82h38.89c9.26,0,7.55-6.72,3.42-12.46-6.55-9.52-15.53-14.41-25.93-20.01-1.57-.84-6.41-3.64-7.55-3.92-3.28-.7-6.55,2.24-7.41,3.78Z"/>
      <path class="cls-2" d="M0,31.65c.57,2.38,17.95,21.83,21.94,26.59,1.28,1.54,3.13,4.34,4.84,5.18,3.56,1.54,13.11,2.8,17.38,2.24-.43-1.96-18.52-23.23-21.8-27.29-1.42-1.68-2.56-3.92-5.13-4.9-3.7-1.4-12.82-2.66-17.24-1.82Z"/>
      <text style="fill: rgb(190, 0, 0); font-family: Arial, sans-serif; font-size: 28px; font-weight: 700; white-space: pre; pointer-events: none;" x="90.524" y="176.858">RAMDEV MOTORS</text>
    </g>
  </g>
</svg>